HIERARCHY
ROOT Hips
{
	OFFSET 0.000000 0.000000 0.000000
	CHANNELS 6 Xposition Yposition Zposition Xrotation Yrotation Zrotation
	JOINT LeftUpLeg_virtual
	{
		OFFSET 0.000000 0.000000 0.000000
		CHANNELS 3 Xrotation Yrotation Zrotation
		JOINT LeftUpLeg
		{
			OFFSET 15.427100 -6.655098 0.678600
			CHANNELS 3 Xrotation Yrotation Zrotation
			JOINT LeftLeg
			{
				OFFSET 4.081073 -39.591068 13.024000
				CHANNELS 3 Xrotation Yrotation Zrotation
				JOINT LeftFoot
				{
					OFFSET -4.081074 -37.707932 -15.979700
					CHANNELS 3 Xrotation Yrotation Zrotation
					JOINT LeftToeBase
					{
						OFFSET 5.346399 -15.068900 20.645000
						CHANNELS 3 Xrotation Yrotation Zrotation
						JOINT LeftToe_End
						{
							OFFSET 2.754700 0.931300 11.300900
							CHANNELS 3 Xrotation Yrotation Zrotation
							End Site
							{
								OFFSET 0 0 0
							}
						}
					}
				}
			}
		}
	}
	JOINT RightUpLeg_virtual
	{
		OFFSET 0.000000 0.000000 0.000000
		CHANNELS 3 Xrotation Yrotation Zrotation
		JOINT RightUpLeg
		{
			OFFSET -15.569500 -6.655098 0.678600
			CHANNELS 3 Xrotation Yrotation Zrotation
			JOINT RightLeg
			{
				OFFSET -4.081825 -39.591045 13.023800
				CHANNELS 3 Xrotation Yrotation Zrotation
				JOINT RightFoot
				{
					OFFSET 4.081824 -37.707954 -15.979600
					CHANNELS 3 Xrotation Yrotation Zrotation
					JOINT RightToeBase
					{
						OFFSET -5.346400 -15.068900 20.645000
						CHANNELS 3 Xrotation Yrotation Zrotation
						JOINT RightToe_End
						{
							OFFSET -2.754700 0.931300 11.300900
							CHANNELS 3 Xrotation Yrotation Zrotation
							End Site
							{
								OFFSET 0 0 0
							}
						}
					}
				}
			}
		}
	}
	JOINT Spine_virtual
	{
		OFFSET 0.000000 0.000000 0.000000
		CHANNELS 3 Xrotation Yrotation Zrotation
		JOINT Spine
		{
			OFFSET -0.279200 12.230698 -2.892100
			CHANNELS 3 Xrotation Yrotation Zrotation
			JOINT Spine1
			{
				OFFSET -0.232667 10.192268 -1.242267
				CHANNELS 3 Xrotation Yrotation Zrotation
				JOINT Spine1_split
				{
					OFFSET -0.232667 10.192268 -1.242267
					CHANNELS 3 Xrotation Yrotation Zrotation
					JOINT Spine2
					{
						OFFSET -0.232667 10.192268 -1.242267
						CHANNELS 3 Xrotation Yrotation Zrotation
						JOINT Neck_virtual
						{
							OFFSET 0.000000 0.000000 0.000000
							CHANNELS 3 Xrotation Yrotation Zrotation
							JOINT Neck
							{
								OFFSET -0.418800 17.814194 8.416900
								CHANNELS 3 Xrotation Yrotation Zrotation
								JOINT Head
								{
									OFFSET 0.000000 7.031097 3.806800
									CHANNELS 3 Xrotation Yrotation Zrotation
									JOINT HeadTop_End
									{
										OFFSET 0.000000 24.646606 12.978600
										CHANNELS 3 Xrotation Yrotation Zrotation
										End Site
										{
											OFFSET 0 0 0
										}
									}
								}
							}
						}
						JOINT LeftShoulder_virtual
						{
							OFFSET 0.000000 0.000000 0.000000
							CHANNELS 3 Xrotation Yrotation Zrotation
							JOINT LeftShoulder
							{
								OFFSET 8.476499 7.247704 -3.868750
								CHANNELS 3 Xrotation Yrotation Zrotation
								JOINT LeftShoulder_split
								{
									OFFSET 8.476499 7.247704 -3.868750
									CHANNELS 3 Xrotation Yrotation Zrotation
									JOINT LeftArm
									{
										OFFSET 9.308998 -2.777710 0.208600
										CHANNELS 3 Xrotation Yrotation Zrotation
										JOINT LeftForeArm
										{
											OFFSET 29.972298 0.000000 0.000000
											CHANNELS 3 Xrotation Yrotation Zrotation
											JOINT LeftHand
											{
												OFFSET 26.026505 0.000000 0.000000
												CHANNELS 3 Xrotation Yrotation Zrotation
												End Site
												{
													OFFSET 0 0 0
												}
											}
										}
									}
								}
							}
						}
						JOINT RightShoulder_virtual
						{
							OFFSET 0.000000 0.000000 0.000000
							CHANNELS 3 Xrotation Yrotation Zrotation
							JOINT RightShoulder
							{
								OFFSET -7.570500 7.247704 -3.868750
								CHANNELS 3 Xrotation Yrotation Zrotation
								JOINT RightShoulder_split
								{
									OFFSET -7.570500 7.247704 -3.868750
									CHANNELS 3 Xrotation Yrotation Zrotation
									JOINT RightArm
									{
										OFFSET -9.308998 -2.777710 0.208500
										CHANNELS 3 Xrotation Yrotation Zrotation
										JOINT RightForeArm
										{
											OFFSET -29.972300 0.000000 0.000000
											CHANNELS 3 Xrotation Yrotation Zrotation
											JOINT RightHand
											{
												OFFSET -26.026505 0.000000 0.000000
												CHANNELS 3 Xrotation Yrotation Zrotation
												End Site
												{
													OFFSET 0 0 0
												}
											}
										}
									}
								}
							}
						}
					}
				}
			}
		}
	}
}
MOTION
Frames: 8
Frame Time: 0.03333333
6.645358 48.591290 -23.462967 0.000000 0.000000 0.000000 32.512141 12.921249 0.790751 -89.506378 -7.035797 20.721073 94.473291 -3.890934 -2.715363 -9.000373 0.463579 -15.545806 -18.110183 -4.221120 -9.884039 0.000000 0.000000 0.000000 33.102672 9.735978 1.795245 -84.438951 -6.340273 -15.980138 109.346691 15.802623 -3.110472 -32.481989 -17.113008 -9.190980 -14.290813 5.259314 -14.120556 0.000000 0.000000 0.000000 36.932472 9.588157 1.037673 9.819407 0.006561 0.439880 19.482345 -3.508332 -3.927401 0.356319 -0.032732 -0.020992 0.000000 0.000000 0.000000 20.355753 -2.781734 -3.578795 -21.123367 9.829092 5.149088 -28.467843 27.006826 24.295316 0.000000 0.000000 0.000000 18.563860 -3.195206 -5.116177 3.543902 0.131640 4.229753 10.868190 -4.542244 2.635645 -34.533440 -24.974279 -27.124884 -31.295654 -78.730457 -36.122237 0.000000 0.000000 0.000000 21.788131 -2.699285 -4.121348 10.483992 29.391643 1.302830 2.235558 2.325494 3.602772 -43.014636 12.470768 30.762981 -31.508472 53.396442 13.999606 0.000000 0.000000 0.000000 
6.218635 44.432938 -23.754356 0.000000 0.000000 0.000000 34.951215 16.520640 -0.203130 -83.629615 -9.796393 26.104589 99.333449 -6.988757 -3.351977 -21.051929 4.412716 -16.811653 -18.781666 -3.672176 -13.273428 0.000000 0.000000 0.000000 34.838982 12.460746 1.224199 -93.382783 1.276805 -17.394725 114.635709 13.878705 -0.830966 -28.064136 -21.105197 -6.175032 -15.841241 5.636655 -12.322844 0.000000 0.000000 0.000000 39.971954 12.426026 0.466485 9.147515 -0.279555 -0.584026 17.617177 -3.163189 -3.154799 0.295999 -0.042599 0.053404 0.000000 0.000000 0.000000 18.460391 -2.516020 -2.910780 -17.162556 9.800346 2.855659 -28.145488 20.902923 26.191486 0.000000 0.000000 0.000000 16.630720 -2.943672 -4.285805 3.356715 -0.167533 3.713884 9.899890 -3.962894 1.546445 -33.332918 -31.509254 -25.977537 -36.488032 -78.567215 -41.983803 0.000000 0.000000 0.000000 19.949120 -2.580566 -3.450187 10.347118 30.466134 3.286398 2.200001 1.894893 3.855961 -44.893092 16.815733 31.124489 -28.128469 50.333317 11.139695 0.000000 0.000000 0.000000 
5.624706 41.200569 -23.841583 0.000000 0.000000 0.000000 37.247668 19.704466 -1.473533 -77.865687 -11.945358 31.282523 101.427128 -11.099959 -2.701301 -29.273962 6.968989 -20.950811 -18.141385 -3.829703 -14.288811 0.000000 0.000000 0.000000 36.629410 14.917217 0.351406 -99.639619 7.644904 -17.176092 118.360936 12.475761 1.551908 -23.764796 -23.852373 -2.936172 -18.149150 6.184671 -11.072816 0.000000 0.000000 0.000000 42.727423 15.053141 -0.361195 8.487881 -0.561911 -1.574975 15.601959 -2.801439 -2.142216 0.183542 -0.056375 0.137490 0.000000 0.000000 0.000000 16.417311 -2.139390 -2.094713 -13.619635 9.324783 0.721789 -27.650337 14.324162 27.642906 0.000000 0.000000 0.000000 14.659866 -2.607974 -3.233470 3.251902 -0.386471 2.839747 8.467672 -3.187053 -0.322064 -30.882144 -37.181282 -26.215960 -34.644144 -76.711610 -40.567017 0.000000 0.000000 0.000000 18.000048 -2.352186 -2.571732 10.152789 30.461045 5.090825 2.159418 1.579082 4.391551 -45.978026 19.548932 32.375411 -25.436207 47.865723 8.933283 0.000000 0.000000 0.000000 
5.022337 38.976028 -23.746941 0.000000 0.000000 0.000000 39.401773 21.971716 -2.817208 -73.577147 -13.732235 35.711019 101.962737 -14.982262 -1.403180 -33.052481 7.955423 -25.907445 -19.069733 -4.498843 -13.141821 0.000000 0.000000 0.000000 38.501408 16.578128 -0.670954 -103.342456 11.926291 -16.012224 120.603437 11.348160 3.923739 -21.318637 -25.362967 -0.653541 -20.400167 6.777822 -10.450516 0.000000 0.000000 0.000000 45.246018 16.847563 -1.193947 7.937407 -0.699072 -2.254343 13.758742 -2.475916 -1.073392 0.092934 -0.175700 0.221776 0.000000 0.000000 0.000000 14.560099 -1.744799 -1.226421 -10.830355 8.608176 -1.211686 -27.384491 8.158361 28.345898 0.000000 0.000000 0.000000 12.970376 -2.280640 -2.149016 3.222574 -0.503337 1.680738 6.773377 -2.130330 -2.516973 -27.552689 -41.612893 -26.949333 -29.722227 -73.713662 -35.755248 0.000000 0.000000 0.000000 16.255341 -2.062537 -1.612442 10.044486 29.536395 6.352125 1.949260 1.239096 5.232540 -45.786986 20.727821 33.670251 -23.502416 45.889398 7.303341 0.000000 0.000000 0.000000 
4.518696 37.653065 -23.242554 0.000000 0.000000 0.000000 41.249319 23.040151 -3.940201 -71.615196 -15.383389 38.733709 102.542900 -17.331532 -0.226606 -33.683074 7.600769 -29.342353 -20.136972 -5.301662 -12.429786 0.000000 0.000000 0.000000 40.447970 16.956080 -1.412411 -104.593473 13.795459 -14.400216 121.637896 10.187628 6.203984 -21.757984 -25.894357 -0.605423 -21.670583 7.302896 -10.418410 0.000000 0.000000 0.000000 47.325390 17.791564 -1.907143 7.493288 -0.586366 -2.428438 12.331761 -2.221718 -0.123599 0.016949 -0.333566 0.252246 0.000000 0.000000 0.000000 13.118562 -1.414138 -0.480198 -8.820694 7.692288 -2.887940 -27.625272 3.391921 28.118774 0.000000 0.000000 0.000000 11.760556 -2.017841 -1.183012 3.252266 -0.428431 0.366775 5.090665 -1.166543 -4.497872 -24.020496 -44.920693 -27.448406 -24.799934 -70.328190 -30.605197 0.000000 0.000000 0.000000 14.907856 -1.755131 -0.729706 10.099792 27.804250 6.891424 1.944921 1.347341 6.071149 -44.365357 20.716172 34.328773 -22.445392 44.284559 6.242681 0.000000 0.000000 0.000000 
4.163829 37.050888 -22.768906 0.000000 0.000000 0.000000 42.487274 22.927318 -4.528041 -72.016224 -16.852793 40.087821 103.465276 -17.946281 0.747292 -32.985596 6.494495 -30.878449 -20.916389 -5.811828 -13.199893 0.000000 0.000000 0.000000 42.091229 16.091029 -1.582453 -103.998728 13.821580 -12.662492 121.886146 9.020414 8.291967 -24.018388 -25.783810 -2.260707 -21.970502 7.706093 -10.923680 0.000000 0.000000 0.000000 48.776474 17.903109 -2.406842 7.202762 -0.248126 -2.141274 11.407384 -2.046142 0.534561 -0.031057 -0.492467 0.232979 0.000000 0.000000 0.000000 12.199736 -1.181023 -0.011566 -7.527740 6.671381 -4.211956 -28.229841 0.707808 27.126984 0.000000 0.000000 0.000000 11.082254 -1.852347 -0.504332 3.318117 -0.139989 -0.874809 3.613042 -0.267713 -5.831792 -20.902491 -47.340359 -27.342904 -21.045254 -67.447421 -26.282635 0.000000 0.000000 0.000000 14.064527 -1.473623 -0.078564 10.275641 25.683226 6.784511 1.990621 1.982044 6.673038 -42.149391 20.110874 34.191944 -22.254805 43.058025 5.782115 0.000000 0.000000 0.000000 
3.925897 36.972313 -22.413300 0.000000 0.000000 0.000000 43.128178 21.626635 -4.293737 -72.985072 -17.703389 40.145714 104.115784 -17.377651 1.663592 -32.779809 5.078779 -30.737972 -22.281388 -6.099165 -14.587708 0.000000 0.000000 0.000000 43.380027 14.619513 -1.240013 -102.729283 13.233696 -11.078407 121.651174 8.162242 9.676020 -25.489965 -25.189061 -3.191547 -22.123230 7.995147 -11.822589 0.000000 0.000000 0.000000 49.723419 17.299008 -2.580086 7.100858 0.248750 -1.592359 10.971067 -1.958152 0.827419 0.032207 -0.620128 0.248399 0.000000 0.000000 0.000000 11.795662 -1.067398 0.117229 -6.740941 5.626560 -5.055786 -28.855446 0.026763 25.785723 0.000000 0.000000 0.000000 10.846118 -1.822979 -0.225818 3.395734 0.414115 -1.889096 2.614674 0.346172 -6.239793 -18.474890 -49.361473 -26.757450 -17.778883 -65.495005 -22.304341 0.000000 0.000000 0.000000 13.642649 -1.263795 0.277131 10.439703 23.578848 6.306079 1.778074 3.088029 7.055069 -39.983470 19.512373 33.612116 -22.854870 42.180533 5.951287 0.000000 0.000000 0.000000 
3.830893 37.205284 -22.284134 0.000000 0.000000 0.000000 43.228612 19.697699 -3.446622 -73.868646 -17.938648 39.430539 104.361227 -16.585050 2.622341 -32.992139 3.742139 -30.275637 -23.076803 -6.246085 -16.259904 0.000000 0.000000 0.000000 44.275144 12.797328 -0.477837 -101.691429 12.896231 -9.858202 121.174618 7.751336 10.094732 -24.567571 -24.520068 -2.127123 -22.495805 8.182456 -13.050650 0.000000 0.000000 0.000000 50.048713 16.080195 -2.343877 7.164260 0.767621 -1.051475 10.898868 -1.943962 0.786066 0.192946 -0.617416 0.214935 0.000000 0.000000 0.000000 11.673010 -1.068324 -0.096637 -6.153417 4.507818 -5.257546 -28.809635 0.810640 24.592158 0.000000 0.000000 0.000000 10.921728 -1.946424 -0.307358 3.481190 1.242318 -2.650646 1.875908 0.553811 -5.913074 -16.735423 -51.066941 -26.079498 -14.495888 -64.423123 -18.319851 0.000000 0.000000 0.000000 13.438452 -1.132736 0.367146 10.461896 21.909876 5.893960 1.303141 4.550664 7.299235 -38.361805 19.158947 32.892272 -24.046579 41.446291 6.642088 0.000000 0.000000 0.000000 
